<?xml version="1.0" encoding="iso-8859-1"?>
<!-- Uploaded to: SVG Repo, www.svgrepo.com, Generator: SVG Repo Mixer Tools -->
<svg height="800px" width="800px" version="1.1" id="Layer_1" xmlns="http://www.w3.org/2000/svg" xmlns:xlink="http://www.w3.org/1999/xlink" 
	 viewBox="0 0 456 456" xml:space="preserve">
<g transform="translate(0 -1020.36)" shape-rendering="auto" image-rendering="auto" color-rendering="auto" color-interpolation="sRGB">
	<g>
		<path style="fill:#484666;" d="M228,1020.36c-9.055,0-18.118,3.163-25.344,9.501L27.031,1183.903
			C12.409,1196.733,4,1215.2,4,1234.563v174.104c0,37.35,30.834,67.693,68.5,67.693h311c37.666,0,68.5-30.344,68.5-67.693v-174.104
			c0-19.363-8.409-37.83-23.031-50.66l-175.625-154.042C246.118,1023.52,237.055,1020.36,228,1020.36z"/>
		<path style="fill:#93CFEF;" d="M228,1036.33c5.296,0,10.582,1.882,14.813,5.595l175.656,154.01
			c3.941,3.459,7.036,7.588,9.719,11.939l-80.25,49.41v-86.756c0-21.023-17.134-38.129-38.156-38.129H146.219
			c-21.023,0-38.281,17.104-38.281,38.129v86.506l-80-49.377c2.66-4.27,5.747-8.316,9.625-11.721l175.625-154.011
			C217.418,1038.212,222.704,1036.331,228,1036.33L228,1036.33z"/>
		<path style="fill:#FFFFFF;" d="M146.219,1148.339h163.563c12.375,0,22.219,9.813,22.219,22.189v96.537l-84.563,52.066
			c-11.944,7.27-26.931,7.27-38.875,0L124,1266.94v-96.412C124,1158.151,133.843,1148.339,146.219,1148.339z"/>
		<g>
			<path style="fill:#93CFEF;" d="M21.5,1222.561l86.438,53.348v0.48h0.75l61.375,37.877l-142.75,120.445
				c-4.559-7.668-7.375-16.492-7.375-26.031v-174.105c0-4.088,0.612-8.094,1.562-12.002L21.5,1222.561z"/>
			<path style="fill:#93CFEF;" d="M434.594,1222.811c0.91,3.828,1.469,7.754,1.469,11.752v174.104c0,9.4-2.752,18.096-7.188,25.689
				l-142.969-120.039l61.656-37.941h0.375v-0.24L434.594,1222.811z"/>
			<path style="fill:#93CFEF;" d="M184.406,1323.1l15.781,9.75c0.042,0,0.083,0,0.125,0c17.026,10.365,38.349,10.365,55.375,0
				c0.042,0,0.083,0,0.125,0l15.813-9.719l147.125,123.727c-9.323,8.346-21.599,13.563-35.25,13.563h-311
				c-13.54,0-25.704-5.152-35-13.375L184.406,1323.1z"/>
		</g>
	</g>
	<path style="fill:#484666;" d="M203.969,1180.348c-17.357,0-31.993,13.693-32.008,30.828c0.008,7.74,3.137,14.889,8.15,20.436
		c14.094,15.617,42.402,42.521,42.402,42.521c3.142,2.941,8.047,2.871,11.102-0.16c0,0,26.395-26.207,40.039-40.396
		c5.478-5.66,10.38-13.217,10.394-22.563c0.018-17.137-14.65-30.725-32.008-30.711c-9.85,0.01-17.35,5.346-22.441,10.039
		c-1.018,0.943-0.799,0.992-1.654,1.889c-0.812-0.848-0.579-0.896-1.536-1.773c-5.085-4.693-12.59-10.166-22.441-10.158
		L203.969,1180.348z"/>
	<path style="fill:#EB7282;" d="M203.969,1196.294c3.404-0.004,7.983,2.596,11.575,5.908c3.592,3.314,5.787,6.615,5.787,6.615
		c2.438,3.686,7.401,4.697,11.087,2.26c0.897-0.594,1.666-1.361,2.26-2.26c0,0,2.185-3.289,5.787-6.615s8.172-5.902,11.575-5.908
		c9.152-0.006,15.953,6.738,15.945,14.766c-0.006,3.695-2.082,7.508-5.906,11.457c-11.451,11.91-28.424,28.805-34.134,34.49
		c-5.911-5.674-24.595-23.492-35.906-36.025c0.001-0.053,0.001-0.107,0-0.16c-2.651-2.934-4.012-6.252-4.016-9.686
		c0.007-8.023,6.796-14.875,15.945-14.883L203.969,1196.294z"/>
	<g>
		<g>
			<path style="fill:#64A5DA;" d="M434.594,1222.811l-7.313,4.5c0.377,2.408,0.906,4.783,0.906,7.25v174.107
				c0,7.561-1.839,14.621-4.844,21.064l5.531,4.625c4.436-7.594,7.188-16.289,7.188-25.689v-174.105
				c0-3.996-0.559-7.922-1.469-11.75L434.594,1222.811z"/>
			<path style="fill:#64A5DA;" d="M184.406,1323.1l-4.281,3.623l9.938,6.127c0.042,0,0.083,0,0.125,0
				c10.012,6.094,21.514,8.51,32.75,7.438c-7.872-0.752-15.611-3.17-22.625-7.438c-0.042,0-0.083,0-0.125,0L184.406,1323.1z
				 M271.625,1323.1l-5.844,3.594l142.844,120.133c-9.323,8.346-21.599,13.563-35.25,13.563H383.5
				c13.651,0,25.927-5.217,35.25-13.563L271.625,1323.1z"/>
			<path style="fill:#64A5DA;" d="M21.5,1222.561c-0.356,1.473-0.347,3.008-0.594,4.5l79.156,48.846v0.465h0.75l61.375,37.877
				l-137.25,115.82c0.747,1.584,1.488,3.133,2.375,4.625l142.75-120.447l-61.375-37.879h-0.75v-0.465L21.5,1222.561z"/>
			<path style="fill:#64A5DA;" d="M228,1036.332c-1.44,0-2.833,0.464-4.25,0.752c3.796,0.736,7.482,2.141,10.563,4.845
				l175.656,154.012c3.941,3.459,7.036,7.586,9.719,11.938l-71.75,44.189v5.219l80.25-49.41c-2.683-4.352-5.778-8.479-9.719-11.938
				l-175.656-154.013C238.582,1038.212,233.296,1036.332,228,1036.332z M137.719,1132.401c-21.023,0-38.281,17.104-38.281,38.129
				v81.254l8.5,5.252v-86.506c0-21.023,17.259-38.129,38.281-38.129H137.719z"/>
		</g>
		<path style="fill:#E1E1E6;" d="M302.031,1148.339c12.375,0,22.219,9.814,22.219,22.189v96.537l-84.563,52.066
			c-4.814,2.932-10.158,4.34-15.563,4.906c8.004,0.848,16.183-0.576,23.313-4.906L332,1267.065v-96.537
			c0-12.377-9.843-22.189-22.219-22.189H302.031z"/>
	</g>
	<path style="fill:#C86774;" d="M203.969,1196.278c-1.207,0.002-2.229,0.432-3.344,0.656c3.065,0.736,6.515,2.584,9.438,5.281
		c3.592,3.314,5.781,6.594,5.781,6.594c2.044,3.08,5.933,4.359,9.406,3.094c-1.598-0.59-2.967-1.674-3.906-3.094
		c0,0-2.221-3.279-5.813-6.594c-3.592-3.314-8.159-5.941-11.563-5.939L203.969,1196.278z M252.031,1196.278
		c-0.623,0.002-1.406,0.465-2.094,0.623c7.325,1.473,12.57,7.199,12.563,14.156c-0.006,3.695-2.083,7.518-5.906,11.471
		c-10.549,10.971-24.639,24.979-31.437,31.752c0.702,0.672,2.263,2.221,2.781,2.719c5.709-5.686,22.705-22.561,34.156-34.471
		c3.824-3.951,5.869-7.773,5.875-11.471c0.008-8.025-6.786-14.789-15.938-14.783V1196.278z"/>
</g>
</svg>